<?xml version="1.0" encoding="UTF-8" standalone="no"?>
<svg
   xmlns:dc="http://purl.org/dc/elements/1.1/"
   xmlns:cc="http://creativecommons.org/ns#"
   xmlns:rdf="http://www.w3.org/1999/02/22-rdf-syntax-ns#"
   xmlns:svg="http://www.w3.org/2000/svg"
   xmlns="http://www.w3.org/2000/svg"
   xmlns:sodipodi="http://sodipodi.sourceforge.net/DTD/sodipodi-0.dtd"
   xmlns:inkscape="http://www.inkscape.org/namespaces/inkscape"
   viewBox="0 0 939.17334 255.16"
   height="28"
   width="104"
   xml:space="preserve"
   id="svg2"
   version="1.1"
   inkscape:version="0.91 r13725"
   sodipodi:docname="alfresco-logo.svg"><sodipodi:namedview
     pagecolor="#ffffff"
     bordercolor="#666666"
     borderopacity="1"
     objecttolerance="10"
     gridtolerance="10"
     guidetolerance="10"
     inkscape:pageopacity="0"
     inkscape:pageshadow="2"
     inkscape:window-width="2560"
     inkscape:window-height="1027"
     id="namedview3548"
     showgrid="false"
     inkscape:zoom="9.0020132"
     inkscape:cx="45.300653"
     inkscape:cy="40.776113"
     inkscape:window-x="0"
     inkscape:window-y="0"
     inkscape:window-maximized="1"
     inkscape:current-layer="svg2" /><metadata
     id="metadata8"><rdf:RDF><cc:Work
         rdf:about=""><dc:format>image/svg+xml</dc:format><dc:type
           rdf:resource="http://purl.org/dc/dcmitype/StillImage" /></cc:Work></rdf:RDF></metadata><defs
     id="defs6"><radialGradient
       gradientUnits="userSpaceOnUse"
       fy="336.3139"
       fx="177.80983"
       gradientTransform="matrix(1.402646,0,0,0.71293824,-138.23682,158.76229)"
       id="grad1"
       cx="177.80983"
       cy="336.3139"
       r="90.127441"><stop
         offset="0%"
         stop-color="#ffffff"
         stop-opacity="1.0000"
         id="stop10" /><stop
         offset="100%"
         stop-color="#00557f"
         stop-opacity="1.0000"
         id="stop12" /></radialGradient><radialGradient
       gradientUnits="userSpaceOnUse"
       fy="241.74356"
       fx="252.20497"
       gradientTransform="matrix(1.4119917,0,0,0.70821948,-138.23682,158.76229)"
       id="grad2"
       cx="252.20497"
       cy="241.74356"
       r="57.922863"><stop
         offset="0%"
         stop-color="#ffffff"
         stop-opacity="1.0000"
         id="stop19" /><stop
         offset="100%"
         stop-color="#002641"
         stop-opacity="1.0000"
         id="stop21" /></radialGradient></defs><g
     id="g3470"
     transform="matrix(1.1354029,0,0,1.2106851,-54.027583,-301.6432)"><path
       d="m 174.83968,300.65179 -20.0379,41.0043 -55.4447,-0.0272 -11.2443,21.3503 -40.2296,0.011 31.5517,-62.2811 95.4048,-0.0573 z"
       style="fill:#3a3a3a;fill-rule:evenodd"
       id="path5"
       inkscape:connector-curvature="0" /><path
       d="m 153.91338,430.50079 20.4625,-41.014 -75.0687,0.0221 -10.9362,-23.1032 -40.412,0.0356 31.551,64.2197 74.4034,-0.1602 z"
       style="fill:url(#grad1)"
       id="path14-3"
       inkscape:connector-curvature="0" /><path
       d="m 179.85948,300.64749 -20.4624,41.0136 61.392,-0.004 20.3946,-41.0181 -61.3242,0.009 z"
       style="fill:url(#grad2)"
       id="path23"
       inkscape:connector-curvature="0" /><path
       d="m 222.39998,345.06029 20.6451,40.8927 -62.329,0.1137 -21.2362,-41.0302 62.9201,0.0238 z"
       style="fill:#c4c6c8;fill-rule:evenodd"
       id="path25"
       inkscape:connector-curvature="0" /><path
       d="m 154.38518,348.25439 18.1906,34.8974 -67.7293,-0.0293 -9.5614,-18.0117 9.5685,-16.9605 49.5316,0.1041 z"
       style="fill:#9b9d9f;fill-rule:evenodd"
       id="path27"
       inkscape:connector-curvature="0" /><path
       d="m 79.52838,300.72249 95.3244,-0.0908 17.0479,-14.6598 -87.3115,0.0163 -25.0608,14.7343 z"
       style="fill:#6e6f70;fill-rule:evenodd"
       id="path29"
       inkscape:connector-curvature="0" /><path
       d="m 179.85928,300.64739 61.9728,0 25.0278,-14.6923 -70.385,0.0416 -16.6156,14.6507 z"
       style="fill:#0070a4;fill-rule:evenodd"
       id="path31"
       inkscape:connector-curvature="0" /><path
       d="m 266.85988,285.95509 -18.5467,40.3057 -27.6304,15.6217 20.2639,-41.0094 25.9132,-14.918 z"
       style="fill:#009ee0;fill-rule:evenodd"
       id="path33"
       inkscape:connector-curvature="0" /><path
       d="m 249.72638,329.49519 -27.3264,15.5651 20.6452,40.8926 25.3323,-15.149 -18.6511,-41.3087 z"
       style="fill:#b1b3b4;fill-rule:evenodd"
       id="path35"
       inkscape:connector-curvature="0" /><path
       d="m 180.73488,389.89469 64.0425,-0.0639 24.3396,-15.1535 -17.8474,39.2312 -26.7549,16.1939 -64.0858,0.004 20.306,-40.2117 z"
       style="fill:none;stroke:#6e6f70;stroke-width:0.56690001;stroke-linecap:butt;stroke-linejoin:miter;stroke-dasharray:none"
       id="path37"
       inkscape:connector-curvature="0" /><path
       d="m 244.77738,389.83079 -20.2627,40.2716"
       style="fill:none;stroke:#6e6f70;stroke-width:0.56690001;stroke-linecap:butt;stroke-linejoin:miter;stroke-dasharray:none"
       id="path39"
       inkscape:connector-curvature="0" /></g><g
     id="g3466"
     transform="matrix(1.7634202,0,0,2.0110235,315.49006,-809.65825)"><path
       d="m -24.74892,455.69969 15.8409,0 c 0.3422,0 0.6357,-0.2932 0.6357,-0.6354 l 0,-3.5693 -16.4766,0 c -4.5957,0 -8.3114,3.716 -8.3114,8.3117 l 0,20.0943 c 0,4.5959 3.7157,8.3117 8.3114,8.3117 l 16.4766,0 0,-3.569 c 0,-0.3423 -0.2935,-0.6357 -0.6357,-0.6357 l -15.8409,0 c -2.0534,0 -3.7158,-1.6624 -3.7158,-3.7158 l 0,-8.3604 17.8455,0 c 0.3423,0 0.6357,-0.2935 0.6357,-0.6357 l 0,-3.569 -16.0853,0 c -1.0267,0 -1.9069,0.3912 -2.3959,0.978 l 0,-9.2897 c 0,-2.0533 1.6624,-3.7157 3.7158,-3.7157 z m 20.73,28.3083 c -0.3422,0 -0.6357,0.2444 -0.6357,0.6357 l 0,3.569 18.7254,0 c 4.5469,0 8.0185,-3.3736 8.0185,-7.9695 l 0,-5.2314 c 0,-1.5643 -1.0757,-3.2755 -2.5426,-3.7644 l -18.7742,-6.2094 c -0.489,-0.1467 -0.8802,-0.6844 -0.8802,-1.2221 l 0,-4.7427 c 0,-2.0533 1.7114,-3.3735 3.7648,-3.3735 l 16.7698,0 c 0.3912,0 0.6354,-0.2932 0.6354,-0.6354 l 0,-3.5693 -17.4052,0 c -4.596,0 -8.3117,2.7868 -8.3117,7.3827 l 0,5.8181 c 0,1.5647 1.2224,3.2268 2.6891,3.7158 l 18.7744,6.258 c 0.4889,0.1468 0.8799,0.6845 0.8799,1.1734 l 0,4.4492 c 0,2.0534 -1.5644,3.7158 -3.618,3.7158 l -18.0897,0 z"
       style="fill:#3a3a3a;fill-rule:evenodd"
       id="path41"
       inkscape:connector-curvature="0" /><path
       d="m 54.16198,455.69969 15.8408,0 c 0.3423,0 0.6358,-0.2932 0.6358,-0.6354 l 0,-3.5693 -16.4766,0 c -4.5957,0 -8.3114,3.716 -8.3114,8.3117 l 0,20.0943 c 0,4.5959 3.7157,8.3117 8.3114,8.3117 l 16.4766,0 0,-3.569 c 0,-0.3423 -0.2935,-0.6357 -0.6358,-0.6357 l -15.8408,0 c -2.0534,0 -3.7158,-1.6624 -3.7158,-3.7158 l 0,-8.3604 17.8455,0 c 0.3422,0 0.6357,-0.2935 0.6357,-0.6357 l 0,-3.569 -16.0853,0 c -1.0267,0 -1.9069,0.3912 -2.3959,0.978 l 0,-9.2897 c 0,-2.0533 1.6624,-3.7157 3.7158,-3.7157 z m 41.3133,17.112 -9.9738,-18.8231 c -0.7335,-1.3689 -2.5913,-2.4936 -4.156,-2.4936 l -5.5736,0 c -0.3422,0 -0.6354,0.2935 -0.6354,0.6357 l 0,36.082 3.9602,0 c 0.3422,0 0.6354,-0.2933 0.6354,-0.6358 l 0,-31.8772 c 0,0 0.3913,0 0.8312,0 0.489,0 1.0757,0.3422 1.3202,0.7825 l 16.7208,31.1437 c 0.1468,0.2935 0.5867,0.5868 0.9289,0.5868 l 4.2538,0 0,-36.7177 -3.9603,0 c -0.3422,0 -0.6357,0.2935 -0.6357,0.6357 l 0,19.0677 c 0.2445,3.4712 0.2445,6.5515 0.7335,10.365 l -4.4492,-8.7517 z m 22.5879,15.5964 10.1205,0 c 4.5959,0 8.3117,-2.64 8.3117,-7.8224 l 0,-12.5164 c 0,-0.3422 -0.2935,-0.6354 -0.6357,-0.6354 l -13.0541,0 0,3.569 c 0,0.3422 0.2935,0.6354 0.6357,0.6354 l 8.8981,0 0,8.8494 c 0,2.0536 -2.1023,3.7157 -4.1557,3.7157 l -10.1205,0 c -2.0534,0 -3.7158,-1.6621 -3.7158,-3.7157 l 0,-21.2677 c 0,-2.0534 1.6624,-3.7158 3.7158,-3.7158 l 16.0853,0 c 0.391,0 0.6845,-0.2932 0.6845,-0.6357 l 0,-3.569 -16.7698,0 c -4.596,0 -8.3117,3.7158 -8.3117,8.3117 l 0,20.4855 c 0,4.5957 3.7157,8.3114 8.3117,8.3114 z m 32.5127,-32.7084 15.8408,0 c 0.3423,0 0.6357,-0.2932 0.6357,-0.6354 l 0,-3.5693 -16.4765,0 c -4.5957,0 -8.3114,3.716 -8.3114,8.3117 l 0,20.0943 c 0,4.5959 3.7157,8.3117 8.3114,8.3117 l 16.4765,0 0,-3.569 c 0,-0.3423 -0.2934,-0.6357 -0.6357,-0.6357 l -15.8408,0 c -2.0534,0 -3.7158,-1.6624 -3.7158,-3.7158 l 0,-8.3604 17.8455,0 c 0.3422,0 0.6357,-0.2935 0.6357,-0.6357 l 0,-3.569 -16.0853,0 c -1.0267,0 -1.9069,0.3912 -2.3959,0.978 l 0,-9.2897 c 0,-2.0533 1.6624,-3.7157 3.7158,-3.7157 z m 41.3133,17.112 -9.9738,-18.8231 c -0.7335,-1.3689 -2.5913,-2.4936 -4.156,-2.4936 l -5.5736,0 c -0.3422,0 -0.6354,0.2935 -0.6354,0.6357 l 0,36.082 3.9602,0 c 0.3422,0 0.6354,-0.2933 0.6354,-0.6358 l 0,-31.8772 c 0,0 0.3913,0 0.8312,0 0.489,0 1.0757,0.3422 1.3202,0.7825 l 16.7208,31.1437 c 0.1467,0.2935 0.5867,0.5868 0.9289,0.5868 l 4.2537,0 0,-36.7177 -3.9602,0 c -0.3422,0 -0.6357,0.2935 -0.6357,0.6357 l 0,19.0677 c 0.2445,3.4712 0.2445,6.5515 0.7335,10.365 l -4.4492,-8.7517 z m 37.0108,-21.3167 c -0.3422,0 -0.6354,0.2935 -0.6354,0.6357 l 0,15.5964 -17.5523,0 0,-15.5964 c 0,-0.3422 -0.2932,-0.6357 -0.6354,-0.6357 l -3.9602,0 0,36.7177 3.9602,0 c 0.3422,0 0.6354,-0.2933 0.6354,-0.6358 l 0,-15.6451 17.5523,0 0,15.6451 c 0,0.3425 0.2932,0.6358 0.6354,0.6358 l 3.9603,0 0,-36.7177 -3.9603,0 z m 29.7749,0.3422 c -0.0977,-0.1955 -0.3422,-0.3422 -0.5867,-0.3422 l -5.8181,0 c -1.7601,0 -3.2757,1.1247 -3.8625,2.7381 l -11.9293,33.9796 4.0089,0 c 0.3912,0 0.7822,-0.2933 0.8802,-0.6358 l 3.2755,-9.4358 18.6767,0 3.2758,9.4358 c 0.0977,0.3425 0.4399,0.6358 0.8799,0.6358 l 4.0092,0 -12.8096,-36.3755 z m -12.5651,22.0992 6.1113,-17.601 c 0.1468,-0.3912 0.489,-0.6357 0.8802,-0.6357 l 2.3956,0 6.356,18.2367 -15.7431,0 z m 33.8816,-3.3248 c 0.3425,0.929 1.3692,1.3202 2.7381,1.3202 l 1.4179,0 6.258,0 7.4315,15.6941 c 0.1467,0.2935 0.5379,0.5868 0.8802,0.5868 l 4.2534,0 -7.8227,-16.5254 c 3.5693,-0.9289 6.6493,-3.2757 6.6493,-7.5782 l 0,-4.7424 c 0,-4.9869 -3.7157,-7.8717 -8.3114,-7.8717 l -15.3522,0 c -1.5644,0 -2.8355,1.2714 -2.8355,2.8358 l 0,33.8819 3.9602,0 c 0.3422,0 0.6354,-0.2933 0.6354,-0.6358 l 0,-16.9653 0.0978,0 z m 0.8312,-2.8845 c -0.4887,0 -0.929,-0.3912 -0.929,-0.9289 0,0 0,-10.1696 0,-10.1696 0,-0.4887 0.3913,-0.9289 0.929,-0.9289 l 12.6631,0 c 2.0533,0 3.7157,1.6624 3.7157,3.7157 l 0,4.596 c 0,2.0533 -1.6624,3.7157 -3.7157,3.7157 0,0 -12.6631,0 -12.6631,0 z m 27.7218,20.4856 3.9599,0 0,-36.082 c 0,-0.3422 -0.2932,-0.6357 -0.6354,-0.6357 l -3.9602,0 0,36.0819 c 0,0.3425 0.2932,0.6358 0.6357,0.6358 z m 30.5083,-36.3755 c -0.0977,-0.1955 -0.3422,-0.3422 -0.5867,-0.3422 l -5.8181,0 c -1.7601,0 -3.2757,1.1247 -3.8625,2.7381 l -11.9293,33.9796 4.0089,0 c 0.3912,0 0.7822,-0.2933 0.8802,-0.6358 l 3.2755,-9.4358 18.6767,0 3.2758,9.4358 c 0.0977,0.3425 0.4399,0.6358 0.8799,0.6358 l 4.0092,0 -12.8096,-36.3755 z m -12.5651,22.0992 6.1113,-17.601 c 0.1468,-0.3912 0.489,-0.6357 0.8802,-0.6357 l 2.3956,0 6.3561,18.2367 -15.7432,0 z"
       style="fill:#00557f;fill-rule:evenodd"
       id="path43"
       inkscape:connector-curvature="0" /></g></svg>