<?xml version="1.0" encoding="UTF-8" standalone="no"?>
<svg
   xmlns:dc="http://purl.org/dc/elements/1.1/"
   xmlns:cc="http://creativecommons.org/ns#"
   xmlns:rdf="http://www.w3.org/1999/02/22-rdf-syntax-ns#"
   xmlns:svg="http://www.w3.org/2000/svg"
   xmlns="http://www.w3.org/2000/svg"
   xmlns:sodipodi="http://sodipodi.sourceforge.net/DTD/sodipodi-0.dtd"
   xmlns:inkscape="http://www.inkscape.org/namespaces/inkscape"
   viewBox="0 0 939.17334 255.16"
   height="255.16"
   width="939.17334"
   xml:space="preserve"
   id="svg2"
   version="1.1"
   inkscape:version="0.91 r13725"
   sodipodi:docname="alfresco.svg"><sodipodi:namedview
     pagecolor="#ffffff"
     bordercolor="#666666"
     borderopacity="1"
     objecttolerance="10"
     gridtolerance="10"
     guidetolerance="10"
     inkscape:pageopacity="0"
     inkscape:pageshadow="2"
     inkscape:window-width="2560"
     inkscape:window-height="1027"
     id="namedview43"
     showgrid="false"
     inkscape:zoom="0.69635707"
     inkscape:cx="514.85586"
     inkscape:cy="1.9277581"
     inkscape:window-x="0"
     inkscape:window-y="0"
     inkscape:window-maximized="1"
     inkscape:current-layer="svg2" /><metadata
     id="metadata8"><rdf:RDF><cc:Work
         rdf:about=""><dc:format>image/svg+xml</dc:format><dc:type
           rdf:resource="http://purl.org/dc/dcmitype/StillImage" /></cc:Work></rdf:RDF></metadata><defs
     id="defs6"><radialGradient
       gradientUnits="userSpaceOnUse"
       fy="336.31391"
       fx="177.80983"
       gradientTransform="matrix(1.402646,0,0,0.71293824,-138.23682,158.76229)"
       id="grad1"
       cx="177.80983"
       cy="336.31391"
       r="90.127442"><stop
         offset="0%"
         stop-color="#ffffff"
         stop-opacity="1.0000"
         id="stop10" /><stop
         offset="100%"
         stop-color="#00557f"
         stop-opacity="1.0000"
         id="stop12" /></radialGradient><radialGradient
       gradientUnits="userSpaceOnUse"
       fy="241.74356"
       fx="252.20497"
       gradientTransform="matrix(1.4119917,0,0,0.70821948,-138.23682,158.76229)"
       id="grad2"
       cx="252.20497"
       cy="241.74356"
       r="57.922863"><stop
         offset="0%"
         stop-color="#ffffff"
         stop-opacity="1.0000"
         id="stop19" /><stop
         offset="100%"
         stop-color="#002641"
         stop-opacity="1.0000"
         id="stop21" /></radialGradient><defs
       id="defs7"><radialGradient
         r="1"
         cy="0.5"
         cx="0.5"
         id="radialGradient3396"><stop
           id="stop3398"
           stop-opacity="1.0000"
           stop-color="#ffffff"
           offset="0%" /><stop
           id="stop3400"
           stop-opacity="1.0000"
           stop-color="#00557f"
           offset="100%" /></radialGradient></defs><defs
       id="defs16"><radialGradient
         r="1"
         cy="0.71499997"
         cx="0.71499997"
         id="radialGradient3404"><stop
           id="stop3406"
           stop-opacity="1.0000"
           stop-color="#ffffff"
           offset="0%" /><stop
           id="stop3408"
           stop-opacity="1.0000"
           stop-color="#002641"
           offset="100%" /></radialGradient></defs></defs><g
     id="g3470"
     transform="matrix(1.2265258,0,0,1.2282494,-49.619984,-309.75714)"><path
       d="m 174.83968,300.65179 -20.0379,41.0043 -55.4447,-0.0272 -11.2443,21.3503 -40.2296,0.011 31.5517,-62.2811 95.4048,-0.0573 z"
       style="fill:#3a3a3a;fill-rule:evenodd"
       id="path5"
       inkscape:connector-curvature="0" /><path
       d="m 153.91338,430.50079 20.4625,-41.014 -75.0687,0.0221 -10.9362,-23.1032 -40.412,0.0356 31.551,64.2197 74.4034,-0.1602 z"
       style="fill:url(#grad1)"
       id="path14-3"
       inkscape:connector-curvature="0" /><path
       d="m 179.85948,300.64749 -20.4624,41.0136 61.392,-0.004 20.3946,-41.0181 -61.3242,0.009 z"
       style="fill:url(#grad2)"
       id="path23"
       inkscape:connector-curvature="0" /><path
       d="m 222.39998,345.06029 20.6451,40.8927 -62.329,0.1137 -21.2362,-41.0302 62.9201,0.0238 z"
       style="fill:#c4c6c8;fill-rule:evenodd"
       id="path25"
       inkscape:connector-curvature="0" /><path
       d="m 154.38518,348.25439 18.1906,34.8974 -67.7293,-0.0293 -9.5614,-18.0117 9.5685,-16.9605 49.5316,0.1041 z"
       style="fill:#9b9d9f;fill-rule:evenodd"
       id="path27"
       inkscape:connector-curvature="0" /><path
       d="m 79.52838,300.72249 95.3244,-0.0908 17.0479,-14.6598 -87.3115,0.0163 -25.0608,14.7343 z"
       style="fill:#6e6f70;fill-rule:evenodd"
       id="path29"
       inkscape:connector-curvature="0" /><path
       d="m 179.85928,300.64739 61.9728,0 25.0278,-14.6923 -70.385,0.0416 -16.6156,14.6507 z"
       style="fill:#0070a4;fill-rule:evenodd"
       id="path31"
       inkscape:connector-curvature="0" /><path
       d="m 266.85988,285.95509 -18.5467,40.3057 -27.6304,15.6217 20.2639,-41.0094 25.9132,-14.918 z"
       style="fill:#009ee0;fill-rule:evenodd"
       id="path33"
       inkscape:connector-curvature="0" /><path
       d="m 249.72638,329.49519 -27.3264,15.5651 20.6452,40.8926 25.3323,-15.149 -18.6511,-41.3087 z"
       style="fill:#b1b3b4;fill-rule:evenodd"
       id="path35"
       inkscape:connector-curvature="0" /><path
       d="m 180.73488,389.89469 64.0425,-0.0639 24.3396,-15.1535 -17.8474,39.2312 -26.7549,16.1939 -64.0858,0.004 20.306,-40.2117 z"
       style="fill:none;stroke:#6e6f70;stroke-width:0.56690001;stroke-linecap:butt;stroke-linejoin:miter;stroke-dasharray:none"
       id="path37"
       inkscape:connector-curvature="0" /><path
       d="m 244.77738,389.83079 -20.2627,40.2716"
       style="fill:none;stroke:#6e6f70;stroke-width:0.56690001;stroke-linecap:butt;stroke-linejoin:miter;stroke-dasharray:none"
       id="path39"
       inkscape:connector-curvature="0" /></g><g
     id="g3466"
     transform="matrix(1.6566097,0,0,1.8513657,343.38178,-742.15648)"><path
       d="m -24.74892,455.69969 15.8409,0 c 0.3422,0 0.6357,-0.2932 0.6357,-0.6354 l 0,-3.5693 -16.4766,0 c -4.5957,0 -8.3114,3.716 -8.3114,8.3117 l 0,20.0943 c 0,4.5959 3.7157,8.3117 8.3114,8.3117 l 16.4766,0 0,-3.569 c 0,-0.3423 -0.2935,-0.6357 -0.6357,-0.6357 l -15.8409,0 c -2.0534,0 -3.7158,-1.6624 -3.7158,-3.7158 l 0,-8.3604 17.8455,0 c 0.3423,0 0.6357,-0.2935 0.6357,-0.6357 l 0,-3.569 -16.0853,0 c -1.0267,0 -1.9069,0.3912 -2.3959,0.978 l 0,-9.2897 c 0,-2.0533 1.6624,-3.7157 3.7158,-3.7157 z m 20.73,28.3083 c -0.3422,0 -0.6357,0.2444 -0.6357,0.6357 l 0,3.569 18.7254,0 c 4.5469,0 8.0185,-3.3736 8.0185,-7.9695 l 0,-5.2314 c 0,-1.5643 -1.0757,-3.2755 -2.5426,-3.7644 l -18.7742,-6.2094 c -0.489,-0.1467 -0.8802,-0.6844 -0.8802,-1.2221 l 0,-4.7427 c 0,-2.0533 1.7114,-3.3735 3.7648,-3.3735 l 16.7698,0 c 0.3912,0 0.6354,-0.2932 0.6354,-0.6354 l 0,-3.5693 -17.4052,0 c -4.596,0 -8.3117,2.7868 -8.3117,7.3827 l 0,5.8181 c 0,1.5647 1.2224,3.2268 2.6891,3.7158 l 18.7744,6.258 c 0.4889,0.1468 0.8799,0.6845 0.8799,1.1734 l 0,4.4492 c 0,2.0534 -1.5644,3.7158 -3.618,3.7158 l -18.0897,0 z"
       style="fill:#3a3a3a;fill-rule:evenodd"
       id="path41"
       inkscape:connector-curvature="0" /><path
       d="m 54.16198,455.69969 15.8408,0 c 0.3423,0 0.6358,-0.2932 0.6358,-0.6354 l 0,-3.5693 -16.4766,0 c -4.5957,0 -8.3114,3.716 -8.3114,8.3117 l 0,20.0943 c 0,4.5959 3.7157,8.3117 8.3114,8.3117 l 16.4766,0 0,-3.569 c 0,-0.3423 -0.2935,-0.6357 -0.6358,-0.6357 l -15.8408,0 c -2.0534,0 -3.7158,-1.6624 -3.7158,-3.7158 l 0,-8.3604 17.8455,0 c 0.3422,0 0.6357,-0.2935 0.6357,-0.6357 l 0,-3.569 -16.0853,0 c -1.0267,0 -1.9069,0.3912 -2.3959,0.978 l 0,-9.2897 c 0,-2.0533 1.6624,-3.7157 3.7158,-3.7157 z m 41.3133,17.112 -9.9738,-18.8231 c -0.7335,-1.3689 -2.5913,-2.4936 -4.156,-2.4936 l -5.5736,0 c -0.3422,0 -0.6354,0.2935 -0.6354,0.6357 l 0,36.082 3.9602,0 c 0.3422,0 0.6354,-0.2933 0.6354,-0.6358 l 0,-31.8772 c 0,0 0.3913,0 0.8312,0 0.489,0 1.0757,0.3422 1.3202,0.7825 l 16.7208,31.1437 c 0.1468,0.2935 0.5867,0.5868 0.9289,0.5868 l 4.2538,0 0,-36.7177 -3.9603,0 c -0.3422,0 -0.6357,0.2935 -0.6357,0.6357 l 0,19.0677 c 0.2445,3.4712 0.2445,6.5515 0.7335,10.365 l -4.4492,-8.7517 z m 22.5879,15.5964 10.1205,0 c 4.5959,0 8.3117,-2.64 8.3117,-7.8224 l 0,-12.5164 c 0,-0.3422 -0.2935,-0.6354 -0.6357,-0.6354 l -13.0541,0 0,3.569 c 0,0.3422 0.2935,0.6354 0.6357,0.6354 l 8.8981,0 0,8.8494 c 0,2.0536 -2.1023,3.7157 -4.1557,3.7157 l -10.1205,0 c -2.0534,0 -3.7158,-1.6621 -3.7158,-3.7157 l 0,-21.2677 c 0,-2.0534 1.6624,-3.7158 3.7158,-3.7158 l 16.0853,0 c 0.391,0 0.6845,-0.2932 0.6845,-0.6357 l 0,-3.569 -16.7698,0 c -4.596,0 -8.3117,3.7158 -8.3117,8.3117 l 0,20.4855 c 0,4.5957 3.7157,8.3114 8.3117,8.3114 z m 32.5127,-32.7084 15.8408,0 c 0.3423,0 0.6357,-0.2932 0.6357,-0.6354 l 0,-3.5693 -16.4765,0 c -4.5957,0 -8.3114,3.716 -8.3114,8.3117 l 0,20.0943 c 0,4.5959 3.7157,8.3117 8.3114,8.3117 l 16.4765,0 0,-3.569 c 0,-0.3423 -0.2934,-0.6357 -0.6357,-0.6357 l -15.8408,0 c -2.0534,0 -3.7158,-1.6624 -3.7158,-3.7158 l 0,-8.3604 17.8455,0 c 0.3422,0 0.6357,-0.2935 0.6357,-0.6357 l 0,-3.569 -16.0853,0 c -1.0267,0 -1.9069,0.3912 -2.3959,0.978 l 0,-9.2897 c 0,-2.0533 1.6624,-3.7157 3.7158,-3.7157 z m 41.3133,17.112 -9.9738,-18.8231 c -0.7335,-1.3689 -2.5913,-2.4936 -4.156,-2.4936 l -5.5736,0 c -0.3422,0 -0.6354,0.2935 -0.6354,0.6357 l 0,36.082 3.9602,0 c 0.3422,0 0.6354,-0.2933 0.6354,-0.6358 l 0,-31.8772 c 0,0 0.3913,0 0.8312,0 0.489,0 1.0757,0.3422 1.3202,0.7825 l 16.7208,31.1437 c 0.1467,0.2935 0.5867,0.5868 0.9289,0.5868 l 4.2537,0 0,-36.7177 -3.9602,0 c -0.3422,0 -0.6357,0.2935 -0.6357,0.6357 l 0,19.0677 c 0.2445,3.4712 0.2445,6.5515 0.7335,10.365 l -4.4492,-8.7517 z m 37.0108,-21.3167 c -0.3422,0 -0.6354,0.2935 -0.6354,0.6357 l 0,15.5964 -17.5523,0 0,-15.5964 c 0,-0.3422 -0.2932,-0.6357 -0.6354,-0.6357 l -3.9602,0 0,36.7177 3.9602,0 c 0.3422,0 0.6354,-0.2933 0.6354,-0.6358 l 0,-15.6451 17.5523,0 0,15.6451 c 0,0.3425 0.2932,0.6358 0.6354,0.6358 l 3.9603,0 0,-36.7177 -3.9603,0 z m 29.7749,0.3422 c -0.0977,-0.1955 -0.3422,-0.3422 -0.5867,-0.3422 l -5.8181,0 c -1.7601,0 -3.2757,1.1247 -3.8625,2.7381 l -11.9293,33.9796 4.0089,0 c 0.3912,0 0.7822,-0.2933 0.8802,-0.6358 l 3.2755,-9.4358 18.6767,0 3.2758,9.4358 c 0.0977,0.3425 0.4399,0.6358 0.8799,0.6358 l 4.0092,0 -12.8096,-36.3755 z m -12.5651,22.0992 6.1113,-17.601 c 0.1468,-0.3912 0.489,-0.6357 0.8802,-0.6357 l 2.3956,0 6.356,18.2367 -15.7431,0 z m 33.8816,-3.3248 c 0.3425,0.929 1.3692,1.3202 2.7381,1.3202 l 1.4179,0 6.258,0 7.4315,15.6941 c 0.1467,0.2935 0.5379,0.5868 0.8802,0.5868 l 4.2534,0 -7.8227,-16.5254 c 3.5693,-0.9289 6.6493,-3.2757 6.6493,-7.5782 l 0,-4.7424 c 0,-4.9869 -3.7157,-7.8717 -8.3114,-7.8717 l -15.3522,0 c -1.5644,0 -2.8355,1.2714 -2.8355,2.8358 l 0,33.8819 3.9602,0 c 0.3422,0 0.6354,-0.2933 0.6354,-0.6358 l 0,-16.9653 0.0978,0 z m 0.8312,-2.8845 c -0.4887,0 -0.929,-0.3912 -0.929,-0.9289 0,0 0,-10.1696 0,-10.1696 0,-0.4887 0.3913,-0.9289 0.929,-0.9289 l 12.6631,0 c 2.0533,0 3.7157,1.6624 3.7157,3.7157 l 0,4.596 c 0,2.0533 -1.6624,3.7157 -3.7157,3.7157 0,0 -12.6631,0 -12.6631,0 z m 27.7218,20.4856 3.9599,0 0,-36.082 c 0,-0.3422 -0.2932,-0.6357 -0.6354,-0.6357 l -3.9602,0 0,36.0819 c 0,0.3425 0.2932,0.6358 0.6357,0.6358 z m 30.5083,-36.3755 c -0.0977,-0.1955 -0.3422,-0.3422 -0.5867,-0.3422 l -5.8181,0 c -1.7601,0 -3.2757,1.1247 -3.8625,2.7381 l -11.9293,33.9796 4.0089,0 c 0.3912,0 0.7822,-0.2933 0.8802,-0.6358 l 3.2755,-9.4358 18.6767,0 3.2758,9.4358 c 0.0977,0.3425 0.4399,0.6358 0.8799,0.6358 l 4.0092,0 -12.8096,-36.3755 z m -12.5651,22.0992 6.1113,-17.601 c 0.1468,-0.3912 0.489,-0.6357 0.8802,-0.6357 l 2.3956,0 6.3561,18.2367 -15.7432,0 z"
       style="fill:#00557f;fill-rule:evenodd"
       id="path43"
       inkscape:connector-curvature="0" /></g><path
     inkscape:connector-curvature="0"
     id="path45"
     style="fill:#6e6f70;fill-rule:evenodd"
     d="m 402.34177,203.27318 c -0.1162,0 -0.2158,0.0828 -0.2158,0.2158 l 0,1.2131 6.364,0 c 1.5454,0 2.7252,-1.1464 2.7252,-2.7086 l 0,-1.7778 c 0,-0.5319 -0.3657,-1.1134 -0.864,-1.2794 l -6.3808,-2.1103 c -0.1663,-0.0499 -0.299,-0.2327 -0.299,-0.4155 l 0,-1.6117 c 0,-0.698 0.5814,-1.1467 1.2794,-1.1467 l 5.6994,0 c 0.133,0 0.2161,-0.0997 0.2161,-0.2159 l 0,-1.213 -5.9155,0 c -1.5619,0 -2.8248,0.9471 -2.8248,2.509 l 0,1.9773 c 0,0.5319 0.4154,1.0969 0.9138,1.2629 l 6.3808,2.1269 c 0.166,0.0498 0.299,0.2326 0.299,0.3989 l 0,1.5121 c 0,0.6979 -0.5316,1.2629 -1.2296,1.2629 l -6.1482,0 z m 17.215,1.4952 c 1.5451,0 2.8248,-1.2626 2.8248,-2.8248 l 0,-6.9623 c 0,-1.5619 -1.2797,-2.8248 -2.8248,-2.8248 l -3.7553,0 c -1.5619,0 -2.8248,1.2629 -2.8248,2.8248 l 0,6.9623 c 0,1.5622 1.2629,2.8248 2.8248,2.8248 l 3.7553,0 z m -3.7553,-11.1827 3.7553,0 c 0.6977,0 1.2627,0.565 1.2627,1.2629 l 0,7.228 c 0,0.698 -0.565,1.2629 -1.2627,1.2629 l -3.7553,0 c -0.698,0 -1.2629,-0.5649 -1.2629,-1.2629 l 0,-7.228 c 0,-0.6979 0.5649,-1.2629 1.2629,-1.2629 z m 11.4156,11.1164 5.4001,0 0,-1.2131 c 0,-0.1162 -0.0996,-0.2158 -0.2158,-0.2158 l -5.1843,0 c -0.6979,0 -1.2797,-0.5818 -1.2797,-1.2962 l 0,-9.7538 -1.3458,0 c -0.1164,0 -0.2161,0.0996 -0.2161,0.2158 l 0,9.3885 c 0,1.5784 1.2794,2.8746 2.8416,2.8746 z m 9.571,0.0663 3.7551,0 c 1.5454,0 2.8248,-1.2626 2.8248,-2.8248 l 0,-9.7204 -1.3458,0 c -0.1164,0 -0.2161,0.0996 -0.2161,0.2158 l 0,9.6376 c 0,0.698 -0.565,1.2629 -1.2629,1.2629 l -3.7551,0 c -0.698,0 -1.2629,-0.5649 -1.2629,-1.2629 l 0,-9.6376 c 0,-0.1162 -0.0997,-0.2158 -0.2161,-0.2158 l -1.3458,0 0,9.7204 c 0,1.5622 1.2626,2.8248 2.8248,2.8248 z m 8.5239,-2.8911 c 0,1.5454 1.2629,2.8248 2.8248,2.8248 l 1.3959,0 -0.4653,1.7114 1.69491,0 c 0.0831,0 0.1495,0.0666 0.1495,0.1498 l 0,0.4818 c 0,0.0831 -0.0664,0.133 -0.1495,0.133 l -1.94411,0 c -0.1828,0 -0.3491,0.166 -0.3491,0.3653 l 0,0.6646 2.44271,0 c 0.5649,0 1.0302,-0.465 1.0302,-1.0299 l 0,-0.6148 c 0,-0.5818 -0.4653,-1.0471 -1.0302,-1.0471 l -0.6313,0 0.2326,-0.8141 3.1073,0 0,-1.2131 c 0,-0.1162 -0.0997,-0.2158 -0.2161,-0.2158 l -5.26751,0 c -0.6976,0 -1.2626,-0.565 -1.2626,-1.2629 l 0,-7.0953 c 0,-0.698 0.565,-1.2629 1.2626,-1.2629 l 5.26751,0 c 0.1164,0 0.2161,-0.0997 0.2161,-0.2159 l 0,-1.213 -5.48361,0 c -1.5619,0 -2.8248,1.2629 -2.8248,2.8248 l 0,6.8293 z m 16.35081,2.8911 -3.7554,0 c -1.5619,0 -2.8248,-1.2626 -2.8248,-2.8248 l 0,-6.9623 c 0,-1.5619 1.2629,-2.8248 2.8248,-2.8248 l 3.7554,0 c 1.5451,0 2.8248,1.2629 2.8248,2.8248 l 0,6.9623 c 0,1.5622 -1.2797,2.8248 -2.8248,2.8248 z m -3.7554,-11.1827 c -0.6979,0 -1.2629,0.565 -1.2629,1.2629 l 0,7.228 c 0,0.698 0.565,1.2629 1.2629,1.2629 l 3.7554,0 c 0.6977,0 1.2626,-0.5649 1.2626,-1.2629 l 0,-7.228 c 0,-0.6979 -0.5649,-1.2629 -1.2626,-1.2629 l -3.7554,0 z m 0.7478,-2.7749 0,-0.3158 c 0,-0.0997 0.0829,-0.1828 0.1828,-0.1828 l 0.0997,0 c 0.0663,0 0.166,0.0333 0.2326,0.0666 0,0 0.8307,0.5151 0.9138,0.5649 0.1165,0.0664 0.3323,0.133 0.4818,0.133 l 0.7145,0 c 0.3326,0 0.5983,-0.2659 0.5983,-0.5817 l 0,-1.2131 -0.6812,0 c -0.1495,0 -0.266,0.1165 -0.266,0.266 l 0,0.3158 c 0,0.0996 -0.0831,0.1828 -0.1828,0.1828 l -0.1161,0 c -0.0667,0 -0.1663,-0.0333 -0.2162,-0.0667 0,0 -0.8474,-0.5151 -0.9138,-0.5649 -0.1164,-0.0664 -0.3491,-0.133 -0.4986,-0.133 l -0.6979,0 c -0.3323,0 -0.598,0.266 -0.598,0.5818 l 0,1.213 0.6811,0 c 0.1495,0 0.266,-0.1164 0.266,-0.2659 z m 10.6511,2.8413 5.38389,0 c 0.1162,0 0.2158,-0.0997 0.2158,-0.2159 l 0,-1.213 -5.59969,0 c -1.5619,0 -2.8248,1.2629 -2.8248,2.8248 l 0,6.8293 c 0,1.5619 1.2629,2.8248 2.8248,2.8248 l 5.59969,0 0,-1.2131 c 0,-0.1162 -0.0996,-0.2158 -0.2158,-0.2158 l -5.38389,0 c -0.698,0 -1.2629,-0.565 -1.2629,-1.2629 l 0,-2.8416 6.06499,0 c 0.1165,0 0.2161,-0.0997 0.2161,-0.2159 l 0,-1.213 -5.46669,0 c -0.3491,0 -0.6481,0.1329 -0.8144,0.3323 l 0,-3.1571 c 0,-0.698 0.5649,-1.2629 1.2629,-1.2629 z m 7.04519,9.6211 c -0.1162,0 -0.2159,0.0828 -0.2159,0.2158 l 0,1.2131 6.3641,0 c 1.5453,0 2.7251,-1.1464 2.7251,-2.7086 l 0,-1.7778 c 0,-0.5319 -0.3656,-1.1134 -0.864,-1.2794 l -6.3808,-2.1103 c -0.1663,-0.0499 -0.299,-0.2327 -0.299,-0.4155 l 0,-1.6117 c 0,-0.698 0.5815,-1.1467 1.2794,-1.1467 l 5.6994,0 c 0.133,0 0.2162,-0.0997 0.2162,-0.2159 l 0,-1.213 -5.9156,0 c -1.5619,0 -2.8248,0.9471 -2.8248,2.509 l 0,1.9773 c 0,0.5319 0.4155,1.0969 0.9138,1.2629 l 6.3808,2.1269 c 0.1661,0.0498 0.299,0.2326 0.299,0.3989 l 0,1.5121 c 0,0.6979 -0.5316,1.2629 -1.2295,1.2629 l -6.1482,0 z m 19.7738,-9.6211 5.3839,0 c 0.1162,0 0.2159,-0.0997 0.2159,-0.2159 l 0,-1.213 -5.5998,0 c -1.5619,0 -2.8248,1.2629 -2.8248,2.8248 l 0,6.8293 c 0,1.5619 1.2629,2.8248 2.8248,2.8248 l 5.5998,0 0,-1.2131 c 0,-0.1162 -0.0997,-0.2158 -0.2159,-0.2158 l -5.3839,0 c -0.6979,0 -1.2629,-0.565 -1.2629,-1.2629 l 0,-2.8416 6.0651,0 c 0.1164,0 0.2161,-0.0997 0.2161,-0.2159 l 0,-1.213 -5.4668,0 c -0.3491,0 -0.6481,0.1329 -0.8144,0.3323 l 0,-3.1571 c 0,-0.698 0.565,-1.2629 1.2629,-1.2629 z m 8.5074,-1.4289 -1.1629,0 c -0.1165,0 -0.2162,0.0831 -0.2162,0.2188 l 0,12.2601 1.3461,0 c 0.1162,0 0.2158,-0.0997 0.2158,-0.2189 l 0,-9.726 3.4729,6.6132 c 0.0667,0.1165 0.1994,0.1994 0.3323,0.1994 l 1.2131,0 c 0.133,0 0.266,-0.0829 0.3323,-0.1994 l 3.4729,-6.6132 0,9.726 c 0,0.1192 0.0997,0.2189 0.2159,0.2189 l 1.346,0 0,-12.2601 c 0,-0.1357 -0.0996,-0.2188 -0.2161,-0.2188 l -1.163,0 c -0.1663,0 -0.3656,0.1161 -0.4487,0.2687 l -4.1541,7.5936 -4.1375,-7.5936 c -0.0832,-0.1526 -0.2825,-0.2687 -0.4488,-0.2687 z m 21.7179,1.4289 5.3839,0 c 0.1162,0 0.2159,-0.0997 0.2159,-0.2159 l 0,-1.213 -5.5998,0 c -1.5619,0 -2.8248,1.2629 -2.8248,2.8248 l 0,6.8293 c 0,1.5619 1.2629,2.8248 2.8248,2.8248 l 5.5998,0 0,-1.2131 c 0,-0.1162 -0.0997,-0.2158 -0.2159,-0.2158 l -5.3839,0 c -0.6979,0 -1.2629,-0.565 -1.2629,-1.2629 l 0,-2.8416 6.0651,0 c 0.1164,0 0.2161,-0.0997 0.2161,-0.2159 l 0,-1.213 -5.4668,0 c -0.3491,0 -0.6481,0.1329 -0.8144,0.3323 l 0,-3.1571 c 0,-0.698 0.565,-1.2629 1.2629,-1.2629 z m 14.0408,5.8159 -3.3897,-6.3974 c -0.2492,-0.4653 -0.8808,-0.8474 -1.4124,-0.8474 l -1.8942,0 c -0.1165,0 -0.2162,0.0996 -0.2162,0.2158 l 0,12.2631 1.3461,0 c 0.1162,0 0.2158,-0.0997 0.2158,-0.2161 l 0,-10.8339 c 0,0 0.133,0 0.2825,0 0.1663,0 0.3656,0.1164 0.4488,0.2659 l 5.6829,10.5848 c 0.0498,0.0996 0.1993,0.1993 0.3155,0.1993 l 1.4457,0 0,-12.4789 -1.346,0 c -0.1162,0 -0.2159,0.0996 -0.2159,0.2158 l 0,6.4805 c 0.0832,1.1798 0.0832,2.2265 0.2492,3.5228 l -1.5121,-2.9743 z m 7.6771,5.3004 3.4396,0 c 1.5619,0 2.8248,-0.8972 2.8248,-2.6585 l 0,-4.2537 c 0,-0.1164 -0.0997,-0.2161 -0.2162,-0.2161 l -4.4365,0 0,1.2131 c 0,0.1162 0.0997,0.2158 0.2159,0.2158 l 3.0244,0 0,3.0076 c 0,0.698 -0.7148,1.2629 -1.4124,1.2629 l -3.4396,0 c -0.698,0 -1.2629,-0.5649 -1.2629,-1.2629 l 0,-7.228 c 0,-0.6979 0.5649,-1.2629 1.2629,-1.2629 l 5.4668,0 c 0.1329,0 0.2326,-0.0996 0.2326,-0.2161 l 0,-1.2131 -5.6994,0 c -1.5622,0 -2.8248,1.2629 -2.8248,2.8248 l 0,6.9623 c 0,1.5622 1.2626,2.8248 2.8248,2.8248 z m 11.0497,-11.1163 5.38391,0 c 0.1162,0 0.2159,-0.0997 0.2159,-0.2159 l 0,-1.213 -5.59981,0 c -1.5619,0 -2.8248,1.2629 -2.8248,2.8248 l 0,6.8293 c 0,1.5619 1.2629,2.8248 2.8248,2.8248 l 5.59981,0 0,-1.2131 c 0,-0.1162 -0.0997,-0.2158 -0.2159,-0.2158 l -5.38391,0 c -0.6979,0 -1.2629,-0.565 -1.2629,-1.2629 l 0,-2.8416 6.06511,0 c 0.1164,0 0.2161,-0.0997 0.2161,-0.2159 l 0,-1.213 -5.46681,0 c -0.3491,0 -0.6481,0.1329 -0.8144,0.3323 l 0,-3.1571 c 0,-0.698 0.565,-1.2629 1.2629,-1.2629 z m 14.04091,5.8159 -3.3898,-6.3974 c -0.2492,-0.4653 -0.8808,-0.8474 -1.4124,-0.8474 l -1.8942,0 c -0.1165,0 -0.2161,0.0996 -0.2161,0.2158 l 0,12.2631 1.346,0 c 0.1162,0 0.2159,-0.0997 0.2159,-0.2161 l 0,-10.8339 c 0,0 0.1329,0 0.2824,0 0.1663,0 0.3657,0.1164 0.4488,0.2659 l 5.6829,10.5848 c 0.0499,0.0996 0.1994,0.1993 0.3155,0.1993 l 1.4457,0 0,-12.4789 -1.346,0 c -0.1162,0 -0.2158,0.0996 -0.2158,0.2158 l 0,6.4805 c 0.0831,1.1798 0.0831,2.2265 0.2491,3.5228 l -1.512,-2.9743 z m 12.5788,-7.2448 c -0.1164,0 -0.2161,0.0996 -0.2161,0.2158 l 0,5.3008 -5.9654,0 0,-5.3008 c 0,-0.1162 -0.0997,-0.2158 -0.2158,-0.2158 l -1.3461,0 0,12.4789 1.3461,0 c 0.1161,0 0.2158,-0.0997 0.2158,-0.2161 l 0,-5.3173 5.9654,0 0,5.3173 c 0,0.1164 0.0997,0.2161 0.2161,0.2161 l 1.3458,0 0,-12.4789 -1.3458,0 z m 10.1195,0.1161 c -0.0334,-0.0663 -0.1165,-0.1161 -0.1994,-0.1161 l -1.9773,0 c -0.5983,0 -1.1134,0.3821 -1.3128,0.9305 l -4.0543,11.5484 1.3625,0 c 0.1327,0 0.2657,-0.0997 0.299,-0.2161 l 1.1134,-3.207 6.3473,0 1.1134,3.207 c 0.0333,0.1164 0.1495,0.2161 0.299,0.2161 l 1.3625,0 -4.3533,-12.3628 z m -4.2706,7.5108 2.0771,-5.9819 c 0.0498,-0.133 0.1663,-0.2161 0.2992,-0.2161 l 0.8142,0 2.1601,6.198 -5.3506,0 z m 11.5154,-1.1299 c 0.1164,0.3158 0.4652,0.4485 0.9305,0.4485 l 0.4819,0 2.1268,0 2.5258,5.3341 c 0.0498,0.0996 0.1828,0.1993 0.299,0.1993 l 1.4457,0 -2.6588,-5.6163 c 1.2131,-0.3158 2.2601,-1.1134 2.2601,-2.5756 l 0,-1.6117 c 0,-1.6949 -1.2628,-2.6753 -2.825,-2.6753 l -5.2174,0 c -0.5319,0 -0.9639,0.4319 -0.9639,0.9636 l 0,11.5153 1.3461,0 c 0.1162,0 0.2158,-0.0997 0.2158,-0.2161 l 0,-5.7658 0.0334,0 z m 0.2824,-0.9804 c -0.166,0 -0.3158,-0.133 -0.3158,-0.3158 0,0 0,-3.4561 0,-3.4561 0,-0.1663 0.133,-0.3158 0.3158,-0.3158 l 4.3036,0 c 0.6979,0 1.2629,0.5649 1.2629,1.2629 l 0,1.5619 c 0,0.6979 -0.565,1.2629 -1.2629,1.2629 0,0 -4.3036,0 -4.3036,0 z m 9.4215,6.9623 1.3461,0 0,-12.2631 c 0,-0.1162 -0.0997,-0.2158 -0.2162,-0.2158 l -1.3457,0 0,12.2628 c 0,0.1164 0.0996,0.2161 0.2158,0.2161 z m 10.3689,-12.3628 c -0.0333,-0.0663 -0.1165,-0.1161 -0.1993,-0.1161 l -1.9774,0 c -0.5983,0 -1.1134,0.3821 -1.3127,0.9305 l -4.0544,11.5484 1.3626,0 c 0.1327,0 0.2656,-0.0997 0.299,-0.2161 l 1.1134,-3.207 6.3472,0 1.1134,3.207 c 0.0333,0.1164 0.1495,0.2161 0.299,0.2161 l 1.3626,0 -4.3534,-12.3628 z m -4.2705,7.5108 2.077,-5.9819 c 0.0498,-0.133 0.1663,-0.2161 0.2993,-0.2161 l 0.8141,0 2.1602,6.198 -5.3506,0 z m 17.2147,4.852 5.3341,0 c 1.5619,0 2.8248,-1.2794 2.8248,-2.8248 l 0,-6.8293 c 0,-1.5619 -1.2629,-2.8248 -2.8248,-2.8248 l -5.3341,0 c -0.5316,0 -0.9636,0.4319 -0.9636,0.9636 l 0,10.5517 c 0,0.5316 0.432,0.9636 0.9636,0.9636 z m 0.9141,-1.4289 c -0.1828,0 -0.3158,-0.1498 -0.3158,-0.3158 l 0,-8.9895 c 0,-0.1828 0.133,-0.3158 0.3158,-0.3158 l 4.42,0 c 0.6977,0 1.2629,0.5649 1.2629,1.2629 l 0,7.0953 c 0,0.6979 -0.5652,1.2629 -1.2629,1.2629 l -4.42,0 z m 12.0469,-9.6211 5.3839,0 c 0.1162,0 0.2159,-0.0997 0.2159,-0.2159 l 0,-1.213 -5.5998,0 c -1.5619,0 -2.8248,1.2629 -2.8248,2.8248 l 0,6.8293 c 0,1.5619 1.2629,2.8248 2.8248,2.8248 l 5.5998,0 0,-1.2131 c 0,-0.1162 -0.0997,-0.2158 -0.2159,-0.2158 l -5.3839,0 c -0.6979,0 -1.2629,-0.565 -1.2629,-1.2629 l 0,-2.8416 6.0651,0 c 0.1164,0 0.2161,-0.0997 0.2161,-0.2159 l 0,-1.213 -5.4668,0 c -0.3491,0 -0.6481,0.1329 -0.8144,0.3323 l 0,-3.1571 c 0,-0.698 0.565,-1.2629 1.2629,-1.2629 z m 16.2509,0 5.3839,0 c 0.1162,0 0.2158,-0.0997 0.2158,-0.2159 l 0,-1.213 -5.5997,0 c -1.5619,0 -2.8248,1.2629 -2.8248,2.8248 l 0,6.8293 c 0,1.5619 1.2629,2.8248 2.8248,2.8248 l 5.5997,0 0,-1.2131 c 0,-0.1162 -0.0996,-0.2158 -0.2158,-0.2158 l -5.3839,0 c -0.698,0 -1.2629,-0.565 -1.2629,-1.2629 l 0,-2.8416 6.065,0 c 0.1165,0 0.2161,-0.0997 0.2161,-0.2159 l 0,-1.213 -5.4667,0 c -0.3491,0 -0.6481,0.1329 -0.8144,0.3323 l 0,-3.1571 c 0,-0.698 0.5649,-1.2629 1.2629,-1.2629 z m 13.725,-1.4956 -3.7551,0 c -1.5622,0 -2.8248,1.2629 -2.8248,2.8248 l 0,6.9623 c 0,1.5622 1.2626,2.8248 2.8248,2.8248 l 3.1736,0 0.4485,1.0471 c 0.0501,0.1162 0.1828,0.1993 0.3158,0.1993 l 1.1632,0 -0.5814,-1.3625 c 1.1797,-0.3324 2.0602,-1.429 2.0602,-2.7087 l 0,-6.9623 c 0,-1.5619 -1.2794,-2.8248 -2.8248,-2.8248 z m 1.2629,9.9201 c 0,0.6316 -0.4818,1.1633 -1.0801,1.2464 l -0.5815,-1.2962 c -0.0498,-0.1162 -0.1828,-0.1993 -0.3158,-0.1993 l -1.1632,0 0.6649,1.512 -2.5423,0 c -0.6979,0 -1.2629,-0.5649 -1.2629,-1.2629 l 0,-7.228 c 0,-0.6979 0.565,-1.2629 1.2629,-1.2629 l 3.7551,0 c 0.6979,0 1.2629,0.565 1.2629,1.2629 l 0,7.228 z m 6.4142,2.6918 3.7551,0 c 1.5453,0 2.8248,-1.2626 2.8248,-2.8248 l 0,-9.7204 -1.3458,0 c -0.1165,0 -0.2161,0.0996 -0.2161,0.2158 l 0,9.6376 c 0,0.698 -0.565,1.2629 -1.2629,1.2629 l -3.7551,0 c -0.698,0 -1.2629,-0.5649 -1.2629,-1.2629 l 0,-9.6376 c 0,-0.1162 -0.0997,-0.2158 -0.2162,-0.2158 l -1.3457,0 0,9.7204 c 0,1.5622 1.2626,2.8248 2.8248,2.8248 z m 9.172,-0.0663 1.346,0 0,-12.2631 c 0,-0.1162 -0.0996,-0.2158 -0.2161,-0.2158 l -1.3457,0 0,12.2628 c 0,0.1164 0.0996,0.2161 0.2158,0.2161 z m 9.7706,-12.4789 -5.2008,0 c -0.5319,0 -0.9639,0.4319 -0.9639,0.9636 l 0,11.5153 1.346,0 c 0.1162,0 0.2159,-0.0997 0.2159,-0.2161 l 0,-5.6328 c 0.0333,0.3656 0.4488,0.6646 0.9639,0.6646 l 3.6389,0 c 1.5619,0 2.8248,-1.2794 2.8248,-2.8248 l 0,-1.645 c 0,-1.5454 -1.2629,-2.8248 -2.8248,-2.8248 z m 1.2629,4.6028 c 0,0.6979 -0.565,1.2629 -1.2629,1.2629 l -4.2705,0 c -0.0165,0 -0.0165,0 -0.0165,0 -0.166,0 -0.3158,-0.1498 -0.3158,-0.3158 l 0,-3.8052 c 0,-0.1663 0.133,-0.3158 0.3158,-0.3158 l 4.287,0 c 0.6979,0 1.2629,0.5649 1.2629,1.2629 l 0,1.911 z m 8.9064,-4.4867 c -0.0334,-0.0663 -0.1165,-0.1161 -0.1994,-0.1161 l -1.9773,0 c -0.5983,0 -1.1134,0.3821 -1.3128,0.9305 l -4.0543,11.5484 1.3625,0 c 0.1327,0 0.2657,-0.0997 0.299,-0.2161 l 1.1134,-3.207 6.3473,0 1.1134,3.207 c 0.0333,0.1164 0.1495,0.2161 0.299,0.2161 l 1.3625,0 -4.3533,-12.3628 z m -4.2705,7.5108 2.077,-5.9819 c 0.0498,-0.133 0.1663,-0.2161 0.2993,-0.2161 l 0.8141,0 2.1601,6.198 -5.3505,0 z m 11.2991,-7.6269 -1.1629,0 c -0.1165,0 -0.2161,0.0831 -0.2161,0.2188 l 0,12.2601 1.346,0 c 0.1162,0 0.2158,-0.0997 0.2158,-0.2189 l 0,-9.726 3.4729,6.6132 c 0.0667,0.1165 0.1994,0.1994 0.3324,0.1994 l 1.213,0 c 0.133,0 0.266,-0.0829 0.3323,-0.1994 l 3.4729,-6.6132 0,9.726 c 0,0.1192 0.0997,0.2189 0.2159,0.2189 l 1.346,0 0,-12.2601 c 0,-0.1357 -0.0996,-0.2188 -0.2161,-0.2188 l -1.1629,0 c -0.1663,0 -0.3657,0.1161 -0.4488,0.2687 l -4.1541,7.5936 -4.1375,-7.5936 c -0.0831,-0.1526 -0.2825,-0.2687 -0.4488,-0.2687 z m 15.4202,1.4289 5.3839,0 c 0.1162,0 0.2159,-0.0997 0.2159,-0.2159 l 0,-1.213 -5.5998,0 c -1.5619,0 -2.8248,1.2629 -2.8248,2.8248 l 0,6.8293 c 0,1.5619 1.2629,2.8248 2.8248,2.8248 l 5.5998,0 0,-1.2131 c 0,-0.1162 -0.0997,-0.2158 -0.2159,-0.2158 l -5.3839,0 c -0.6979,0 -1.2629,-0.565 -1.2629,-1.2629 l 0,-2.8416 6.0651,0 c 0.1164,0 0.2161,-0.0997 0.2161,-0.2159 l 0,-1.213 -5.4668,0 c -0.3491,0 -0.6481,0.1329 -0.8144,0.3323 l 0,-3.1571 c 0,-0.698 0.565,-1.2629 1.2629,-1.2629 z m 14.0408,5.8159 -3.3897,-6.3974 c -0.2492,-0.4653 -0.8808,-0.8474 -1.4124,-0.8474 l -1.8942,0 c -0.1165,0 -0.2161,0.0996 -0.2161,0.2158 l 0,12.2631 1.346,0 c 0.1162,0 0.2159,-0.0997 0.2159,-0.2161 l 0,-10.8339 c 0,0 0.1329,0 0.2824,0 0.1663,0 0.3657,0.1164 0.4488,0.2659 l 5.6829,10.5848 c 0.0498,0.0996 0.1993,0.1993 0.3155,0.1993 l 1.4457,0 0,-12.4789 -1.346,0 c -0.1162,0 -0.2159,0.0996 -0.2159,0.2158 l 0,6.4805 c 0.0832,1.1798 0.0832,2.2265 0.2492,3.5228 l -1.5121,-2.9743 z m 4.3537,-7.2448 c -0.1165,0 -0.2161,0.0996 -0.2161,0.2158 l 0,1.2131 3.722,0 0,11.05 1.3461,0 c 0.133,0 0.2161,-0.0997 0.2161,-0.2161 l 0,-10.8339 3.5558,0 c 0.1164,0 0.2161,-0.0997 0.2161,-0.2159 l 0,-1.213 -8.84,0 z m 16.6831,12.5452 c 1.5451,0 2.8248,-1.2626 2.8248,-2.8248 l 0,-6.9623 c 0,-1.5619 -1.2797,-2.8248 -2.8248,-2.8248 l -3.7554,0 c -1.5619,0 -2.8248,1.2629 -2.8248,2.8248 l 0,6.9623 c 0,1.5622 1.2629,2.8248 2.8248,2.8248 l 3.7554,0 z m -3.7554,-11.1827 3.7554,0 c 0.6976,0 1.2626,0.565 1.2626,1.2629 l 0,7.228 c 0,0.698 -0.565,1.2629 -1.2626,1.2629 l -3.7554,0 c -0.6979,0 -1.2629,-0.5649 -1.2629,-1.2629 l 0,-7.228 c 0,-0.6979 0.565,-1.2629 1.2629,-1.2629 z m 8.4909,9.6875 c -0.1162,0 -0.2158,0.0828 -0.2158,0.2158 l 0,1.2131 6.364,0 c 1.5454,0 2.7251,-1.1464 2.7251,-2.7086 l 0,-1.7778 c 0,-0.5319 -0.3656,-1.1134 -0.8639,-1.2794 l -6.3809,-2.1103 c -0.1663,-0.0499 -0.299,-0.2327 -0.299,-0.4155 l 0,-1.6117 c 0,-0.698 0.5815,-1.1467 1.2795,-1.1467 l 5.6994,0 c 0.133,0 0.2161,-0.0997 0.2161,-0.2159 l 0,-1.213 -5.9155,0 c -1.5619,0 -2.8248,0.9471 -2.8248,2.509 l 0,1.9773 c 0,0.5319 0.4154,1.0969 0.9137,1.2629 l 6.3809,2.1269 c 0.166,0.0498 0.299,0.2326 0.299,0.3989 l 0,1.5121 c 0,0.6979 -0.5317,1.2629 -1.2296,1.2629 l -6.1482,0 z" /></svg>